# xmcd CD database file
#
# Track frame offsets:
#	150
#	21670
#	41914
#	65062
#	90577
#	114462
#	133364
#	156265
#	183918
#
# Disc length: 2764 seconds
#
# Revision: 0
# Processed by: cddbd v1.5.2PL0 Copyright (c) Steve Scherf et al.
# Submitted via: CDex 1.70beta2
#
DISCID=840aca09
DTITLE=Eve Selis - Burn A Candle Tonight [CD2 of 2)
DYEAR=2006
DGENRE=Country
TTITLE0=Nothing Without You
TTITLE1=Everything I Need
TTITLE2=Flowers In Her Garden
TTITLE3=Beyond The moon
TTITLE4=Out On A Wire
TTITLE5=Hearts On Fire
TTITLE6=Russellville
TTITLE7=Honky Tonk Town
TTITLE8=Prayer For You (1991 demo)
EXTD=YEAR: 2006
EXTT0=
EXTT1=
EXTT2=
EXTT3=
EXTT4=
EXTT5=
EXTT6=
EXTT7=
EXTT8=
PLAYORDER=
